HIERARCHY
ROOT mixamorig:Hips
{
	OFFSET -0.000008 104.274872 1.554316
	CHANNELS 6 Xposition Yposition Zposition Xrotation Yrotation Zrotation
	JOINT mixamorig:Spine
	{
		OFFSET -0.000005 10.181595 0.131519
		CHANNELS 6 Xposition Yposition Zposition Xrotation Yrotation Zrotation
		JOINT mixamorig:Spine1
		{
			OFFSET -0.000000 9.893959 -1.470707
			CHANNELS 6 Xposition Yposition Zposition Xrotation Yrotation Zrotation
			JOINT mixamorig:Spine2
			{
				OFFSET -0.000000 9.220757 -1.370641
				CHANNELS 6 Xposition Yposition Zposition Xrotation Yrotation Zrotation
				JOINT mixamorig:Neck
				{
					OFFSET 0.000001 16.740417 -2.049036
					CHANNELS 6 Xposition Yposition Zposition Xrotation Yrotation Zrotation
					JOINT mixamorig:Head
					{
						OFFSET 0.000000 9.617874 1.685006
						CHANNELS 6 Xposition Yposition Zposition Xrotation Yrotation Zrotation
						JOINT mixamorig:HeadTop_End
						{
							OFFSET 0.000002 22.037354 7.501101
							CHANNELS 6 Xposition Yposition Zposition Xrotation Yrotation Zrotation
							End Site
							{
								OFFSET 0.000168 2310.654297 -282.823242
							}
						}
					}
				}
				JOINT mixamorig:RightShoulder
				{
					OFFSET -4.569970 11.014908 -2.160885
					CHANNELS 6 Xposition Yposition Zposition Xrotation Yrotation Zrotation
					JOINT mixamorig:RightArm
					{
						OFFSET -10.592851 -0.524811 -2.232101
						CHANNELS 6 Xposition Yposition Zposition Xrotation Yrotation Zrotation
						JOINT mixamorig:RightForeArm
						{
							OFFSET -27.841511 0.000031 -0.000004
							CHANNELS 6 Xposition Yposition Zposition Xrotation Yrotation Zrotation
							JOINT mixamorig:RightHand
							{
								OFFSET -28.328831 -0.000015 0.000015
								CHANNELS 6 Xposition Yposition Zposition Xrotation Yrotation Zrotation
								JOINT mixamorig:RightHandThumb1
								{
									OFFSET -2.464806 -1.573990 2.681852
									CHANNELS 6 Xposition Yposition Zposition Xrotation Yrotation Zrotation
									JOINT mixamorig:RightHandThumb2
									{
										OFFSET -3.215179 -1.872803 1.924282
										CHANNELS 6 Xposition Yposition Zposition Xrotation Yrotation Zrotation
										JOINT mixamorig:RightHandThumb3
										{
											OFFSET -2.654831 -1.527969 1.512609
											CHANNELS 6 Xposition Yposition Zposition Xrotation Yrotation Zrotation
											JOINT mixamorig:RightHandThumb4
											{
												OFFSET -2.018814 -1.152008 1.108052
												CHANNELS 6 Xposition Yposition Zposition Xrotation Yrotation Zrotation
												End Site
												{
													OFFSET -188.809540 -114.533607 132.431396
												}
											}
										}
									}
								}
								JOINT mixamorig:RightHandIndex1
								{
									OFFSET -9.108284 -0.517868 2.259835
									CHANNELS 6 Xposition Yposition Zposition Xrotation Yrotation Zrotation
									JOINT mixamorig:RightHandIndex2
									{
										OFFSET -3.699989 0.000000 0.001215
										CHANNELS 6 Xposition Yposition Zposition Xrotation Yrotation Zrotation
										JOINT mixamorig:RightHandIndex3
										{
											OFFSET -2.850006 0.000031 -0.000522
											CHANNELS 6 Xposition Yposition Zposition Xrotation Yrotation Zrotation
											JOINT mixamorig:RightHandIndex4
											{
												OFFSET -2.772186 -0.000015 -0.000020
												CHANNELS 6 Xposition Yposition Zposition Xrotation Yrotation Zrotation
												End Site
												{
													OFFSET -277.218445 0.000000 -0.050231
												}
											}
										}
									}
								}
								JOINT mixamorig:RightHandMiddle1
								{
									OFFSET -9.532516 -0.000031 -0.000023
									CHANNELS 6 Xposition Yposition Zposition Xrotation Yrotation Zrotation
									JOINT mixamorig:RightHandMiddle2
									{
										OFFSET -3.700005 -0.000015 0.003713
										CHANNELS 6 Xposition Yposition Zposition Xrotation Yrotation Zrotation
										JOINT mixamorig:RightHandMiddle3
										{
											OFFSET -2.949974 0.000015 -0.002054
											CHANNELS 6 Xposition Yposition Zposition Xrotation Yrotation Zrotation
											JOINT mixamorig:RightHandMiddle4
											{
												OFFSET -2.946640 0.000000 -0.000156
												CHANNELS 6 Xposition Yposition Zposition Xrotation Yrotation Zrotation
												End Site
												{
													OFFSET -294.664337 0.000000 -0.113670
												}
											}
										}
									}
								}
								JOINT mixamorig:RightHandRing1
								{
									OFFSET -9.103600 -0.043076 -1.865134
									CHANNELS 6 Xposition Yposition Zposition Xrotation Yrotation Zrotation
									JOINT mixamorig:RightHandRing2
									{
										OFFSET -3.379288 0.000000 -0.001055
										CHANNELS 6 Xposition Yposition Zposition Xrotation Yrotation Zrotation
										JOINT mixamorig:RightHandRing3
										{
											OFFSET -2.889687 -0.000015 0.000379
											CHANNELS 6 Xposition Yposition Zposition Xrotation Yrotation Zrotation
											JOINT mixamorig:RightHandRing4
											{
												OFFSET -2.638809 -0.000015 0.000941
												CHANNELS 6 Xposition Yposition Zposition Xrotation Yrotation Zrotation
												End Site
												{
													OFFSET -263.880371 0.000000 0.516020
												}
											}
										}
									}
								}
								JOINT mixamorig:RightHandPinky1
								{
									OFFSET -8.076683 -0.486710 -3.806280
									CHANNELS 6 Xposition Yposition Zposition Xrotation Yrotation Zrotation
									JOINT mixamorig:RightHandPinky2
									{
										OFFSET -3.600014 -0.000015 -0.003747
										CHANNELS 6 Xposition Yposition Zposition Xrotation Yrotation Zrotation
										JOINT mixamorig:RightHandPinky3
										{
											OFFSET -2.099983 0.000000 -0.005739
											CHANNELS 6 Xposition Yposition Zposition Xrotation Yrotation Zrotation
											JOINT mixamorig:RightHandPinky4
											{
												OFFSET -2.115768 -0.000031 -0.003680
												CHANNELS 6 Xposition Yposition Zposition Xrotation Yrotation Zrotation
												End Site
												{
													OFFSET -211.577087 0.000000 -0.350686
												}
											}
										}
									}
								}
							}
						}
					}
				}
				JOINT mixamorig:LeftShoulder
				{
					OFFSET 4.570447 11.014725 -2.160855
					CHANNELS 6 Xposition Yposition Zposition Xrotation Yrotation Zrotation
					JOINT mixamorig:LeftArm
					{
						OFFSET 10.592371 -0.524597 -2.232119
						CHANNELS 6 Xposition Yposition Zposition Xrotation Yrotation Zrotation
						JOINT mixamorig:LeftForeArm
						{
							OFFSET 27.841532 -0.000031 0.000026
							CHANNELS 6 Xposition Yposition Zposition Xrotation Yrotation Zrotation
							JOINT mixamorig:LeftHand
							{
								OFFSET 28.328846 -0.000061 0.000022
								CHANNELS 6 Xposition Yposition Zposition Xrotation Yrotation Zrotation
								JOINT mixamorig:LeftHandThumb1
								{
									OFFSET 2.466141 -1.576172 2.681732
									CHANNELS 6 Xposition Yposition Zposition Xrotation Yrotation Zrotation
									JOINT mixamorig:LeftHandThumb2
									{
										OFFSET 3.217812 -1.872070 1.916482
										CHANNELS 6 Xposition Yposition Zposition Xrotation Yrotation Zrotation
										JOINT mixamorig:LeftHandThumb3
										{
											OFFSET 2.656029 -1.528778 1.514513
											CHANNELS 6 Xposition Yposition Zposition Xrotation Yrotation Zrotation
											JOINT mixamorig:LeftHandThumb4
											{
												OFFSET 2.020889 -1.154053 1.115139
												CHANNELS 6 Xposition Yposition Zposition Xrotation Yrotation Zrotation
												End Site
												{
													OFFSET 190.885437 -115.081749 130.048782
												}
											}
										}
									}
								}
								JOINT mixamorig:LeftHandIndex1
								{
									OFFSET 9.109314 -0.518021 2.259871
									CHANNELS 6 Xposition Yposition Zposition Xrotation Yrotation Zrotation
									JOINT mixamorig:LeftHandIndex2
									{
										OFFSET 3.699989 0.000000 -0.000322
										CHANNELS 6 Xposition Yposition Zposition Xrotation Yrotation Zrotation
										JOINT mixamorig:LeftHandIndex3
										{
											OFFSET 2.850006 0.000000 0.000352
											CHANNELS 6 Xposition Yposition Zposition Xrotation Yrotation Zrotation
											JOINT mixamorig:LeftHandIndex4
											{
												OFFSET 2.774864 -0.000031 -0.000027
												CHANNELS 6 Xposition Yposition Zposition Xrotation Yrotation Zrotation
												End Site
												{
													OFFSET 277.486267 0.000000 -0.009857
												}
											}
										}
									}
								}
								JOINT mixamorig:LeftHandMiddle1
								{
									OFFSET 9.533394 0.000061 0.000044
									CHANNELS 6 Xposition Yposition Zposition Xrotation Yrotation Zrotation
									JOINT mixamorig:LeftHandMiddle2
									{
										OFFSET 3.699989 -0.000015 -0.000231
										CHANNELS 6 Xposition Yposition Zposition Xrotation Yrotation Zrotation
										JOINT mixamorig:LeftHandMiddle3
										{
											OFFSET 2.949997 -0.000015 -0.000059
											CHANNELS 6 Xposition Yposition Zposition Xrotation Yrotation Zrotation
											JOINT mixamorig:LeftHandMiddle4
											{
												OFFSET 2.952896 0.000031 0.000063
												CHANNELS 6 Xposition Yposition Zposition Xrotation Yrotation Zrotation
												End Site
												{
													OFFSET 295.289337 0.000000 0.022810
												}
											}
										}
									}
								}
								JOINT mixamorig:LeftHandRing1
								{
									OFFSET 9.104523 -0.042999 -1.865074
									CHANNELS 6 Xposition Yposition Zposition Xrotation Yrotation Zrotation
									JOINT mixamorig:LeftHandRing2
									{
										OFFSET 3.150009 -0.000031 0.000043
										CHANNELS 6 Xposition Yposition Zposition Xrotation Yrotation Zrotation
										JOINT mixamorig:LeftHandRing3
										{
											OFFSET 2.949982 -0.000015 0.000040
											CHANNELS 6 Xposition Yposition Zposition Xrotation Yrotation Zrotation
											JOINT mixamorig:LeftHandRing4
											{
												OFFSET 2.644348 0.000000 0.000057
												CHANNELS 6 Xposition Yposition Zposition Xrotation Yrotation Zrotation
												End Site
												{
													OFFSET 264.434631 0.000000 0.012105
												}
											}
										}
									}
								}
								JOINT mixamorig:LeftHandPinky1
								{
									OFFSET 8.077789 -0.486847 -3.806259
									CHANNELS 6 Xposition Yposition Zposition Xrotation Yrotation Zrotation
									JOINT mixamorig:LeftHandPinky2
									{
										OFFSET 3.599953 0.000031 0.014727
										CHANNELS 6 Xposition Yposition Zposition Xrotation Yrotation Zrotation
										JOINT mixamorig:LeftHandPinky3
										{
											OFFSET 2.100021 0.000015 0.007705
											CHANNELS 6 Xposition Yposition Zposition Xrotation Yrotation Zrotation
											JOINT mixamorig:LeftHandPinky4
											{
												OFFSET 2.125504 0.000031 0.007517
												CHANNELS 6 Xposition Yposition Zposition Xrotation Yrotation Zrotation
												End Site
												{
													OFFSET 212.550781 0.000000 0.625752
												}
											}
										}
									}
								}
							}
						}
					}
				}
			}
		}
	}
	JOINT mixamorig:RightUpLeg
	{
		OFFSET -8.207787 -6.751648 -1.599560
		CHANNELS 6 Xposition Yposition Zposition Xrotation Yrotation Zrotation
		JOINT mixamorig:RightLeg
		{
			OFFSET -0.000002 -44.370117 0.345942
			CHANNELS 6 Xposition Yposition Zposition Xrotation Yrotation Zrotation
			JOINT mixamorig:RightFoot
			{
				OFFSET 0.000003 -44.423679 -3.043532
				CHANNELS 6 Xposition Yposition Zposition Xrotation Yrotation Zrotation
				JOINT mixamorig:RightToeBase
				{
					OFFSET -0.000002 -8.728671 10.710558
					CHANNELS 6 Xposition Yposition Zposition Xrotation Yrotation Zrotation
					JOINT mixamorig:RightToe_End
					{
						OFFSET -0.000001 -0.000679 9.278119
						CHANNELS 6 Xposition Yposition Zposition Xrotation Yrotation Zrotation
						End Site
						{
							OFFSET 0.000000 -0.067690 927.812134
						}
					}
				}
			}
		}
	}
	JOINT mixamorig:LeftUpLeg
	{
		OFFSET 8.207793 -6.751686 -1.599556
		CHANNELS 6 Xposition Yposition Zposition Xrotation Yrotation Zrotation
		JOINT mixamorig:LeftLeg
		{
			OFFSET -0.000004 -44.370014 0.346954
			CHANNELS 6 Xposition Yposition Zposition Xrotation Yrotation Zrotation
			JOINT mixamorig:LeftFoot
			{
				OFFSET -0.000001 -44.423672 -3.044401
				CHANNELS 6 Xposition Yposition Zposition Xrotation Yrotation Zrotation
				JOINT mixamorig:LeftToeBase
				{
					OFFSET -0.000002 -8.728669 10.710558
					CHANNELS 6 Xposition Yposition Zposition Xrotation Yrotation Zrotation
					JOINT mixamorig:LeftToe_End
					{
						OFFSET -0.000003 -0.000679 9.278133
						CHANNELS 6 Xposition Yposition Zposition Xrotation Yrotation Zrotation
						End Site
						{
							OFFSET 0.000000 -0.068021 927.813477
						}
					}
				}
			}
		}
	}
}
MOTION
Frames: 3
Frame Time: 0.033333
0.000006 104.270477 1.554256 0.000010 0.000003 -0.000113 -0.000005 10.181587 0.131522 0.000001 -0.000003 0.000084 -0.000000 9.893967 -1.470711 0.000001 0.000000 -0.000000 -0.000000 9.220802 -1.370642 0.000000 -0.000000 -0.000000 0.000001 16.740433 -2.049030 0.000000 -0.000000 -0.000000 0.000000 9.617859 1.685014 0.000000 0.000000 0.000000 0.000002 22.037384 7.501101 0.000000 -0.000000 0.000000 -4.569968 11.014880 -2.160881 0.000008 0.000001 -0.000038 -10.592874 -0.524695 -2.232010 70.468790 10.736926 -7.594864 -27.841528 0.000014 0.000525 -56.864156 119.486906 85.731667 -28.328827 0.000020 0.000022 -0.000320 -0.000045 0.000006 -2.464436 -1.573803 2.682343 -44.516431 -163.805476 -1.167076 -3.215286 -1.872614 1.924684 156.550436 30.041610 -6.397372 -2.654952 -1.527907 1.513100 145.826547 26.649825 -42.959247 -2.018837 -1.152020 1.108060 -0.000010 0.000004 0.000003 -9.108394 -0.517560 2.260139 103.435975 16.363841 -20.708087 -3.700068 0.000318 0.001537 99.503862 13.678088 -16.100303 -2.850071 0.000355 -0.000246 99.651572 10.658998 -12.609042 -2.772184 0.000004 -0.000010 0.000001 0.000001 -0.000001 -9.532599 0.000267 0.000268 101.315768 15.712517 -19.282392 -3.700057 0.000329 0.004004 100.027458 13.390717 -15.821577 -2.950074 0.000348 -0.001794 99.798373 11.497323 -13.626001 -2.946625 0.000003 -0.000155 0.000004 0.000000 0.000000 -9.103731 -0.042769 -1.864833 99.582976 18.239863 -21.452466 -3.379348 0.000314 -0.000759 101.295585 12.753055 -15.543041 -2.889765 0.000355 0.000683 103.322847 8.133259 -10.332477 -2.638807 -0.000028 0.000934 0.000002 0.000000 -0.000001 -8.076765 -0.486392 -3.806024 89.857900 19.019884 -18.820873 -3.600055 0.000282 -0.003487 93.691310 11.058823 -11.399574 -2.100020 0.000311 -0.005453 95.804441 6.166574 -6.579221 -2.115777 -0.000059 -0.003665 -0.000002 -0.000001 0.000001 4.570446 11.014691 -2.160851 -0.000018 0.000010 -0.000021 10.592370 -0.524514 -2.232320 70.225826 0.339611 -0.238718 27.841850 0.000120 -0.000204 112.000745 -62.449430 83.895903 28.328840 -0.000029 0.000021 0.000021 -0.000089 -0.000000 2.465966 -1.576158 2.681897 -39.531643 152.555362 -6.587178 3.217763 -1.871712 1.916367 151.725904 -31.914489 -8.612045 2.656097 -1.528605 1.514444 141.490429 -27.906930 36.760946 2.020894 -1.154081 1.115150 -0.000003 0.000001 0.000004 9.109363 -0.517832 2.259731 91.515143 -13.363035 13.705451 3.700063 0.000191 -0.000474 92.510322 -15.443133 16.144195 2.850073 0.000196 0.000209 91.812981 -13.814634 14.252960 2.774873 -0.000013 -0.000037 0.000003 0.000001 0.000003 9.533450 0.000247 -0.000083 95.118860 -12.277731 13.407395 3.700060 0.000189 -0.000365 96.250377 -15.253073 16.987389 2.950067 0.000180 -0.000199 95.469201 -18.274497 20.075575 2.952876 -0.000046 0.000076 0.000005 0.000001 -0.000001 9.104575 -0.042809 -1.865223 96.047056 -13.003902 14.441781 3.150066 0.000211 -0.000074 99.150462 -16.223651 19.000543 2.950045 0.000181 -0.000056 102.554710 -16.952166 21.060248 2.644320 0.000018 0.000067 0.000001 -0.000003 -0.000001 8.077850 -0.486712 -3.806405 82.199305 -16.389993 14.834920 3.600002 0.000198 0.014560 83.953386 -12.459513 11.672920 2.100053 0.000189 0.007557 88.038680 -11.708425 11.781290 2.125498 -0.000033 0.007514 -0.000001 -0.000002 -0.000001 -8.207786 -6.751667 -1.599560 -0.077001 -0.000003 0.000080 -0.000002 -44.370110 0.345938 0.153719 -0.000000 -0.000000 0.000000 -44.423679 -3.043532 -0.076700 0.000000 -0.000002 -0.000006 -8.728667 10.710559 -0.000009 -0.000000 -0.000000 -0.000001 -0.000679 9.278123 0.000000 -0.000000 -0.000000 8.207792 -6.751710 -1.599556 -0.074518 -0.000003 0.000081 -0.000002 -44.370014 0.346960 0.148822 0.000002 0.000000 -0.000001 -44.423664 -3.044403 -0.074314 0.000000 -0.000002 -0.000004 -8.728671 10.710558 0.000007 -0.000000 -0.000000 0.000000 -0.000680 9.278137 -0.000000 0.000000 -0.000001 
0.000006 104.270477 1.554256 0.000010 0.000003 -0.000113 -0.000005 10.181587 0.131522 0.000001 -0.000003 0.000084 -0.000000 9.893967 -1.470711 0.000001 0.000000 -0.000000 -0.000000 9.220802 -1.370642 0.000000 -0.000000 -0.000000 0.000001 16.740433 -2.049030 0.000000 -0.000000 -0.000000 0.000000 9.617859 1.685014 0.000000 0.000000 0.000000 0.000002 22.037384 7.501101 0.000000 -0.000000 0.000000 -4.569968 11.014880 -2.160881 0.000008 0.000001 -0.000038 -10.592850 -0.524648 -2.232063 69.901392 0.397210 -0.277629 -27.841530 0.000011 0.000567 -55.373997 121.294939 86.032038 -28.328817 0.000021 0.000025 -0.000318 -0.000046 0.000005 -2.464425 -1.573713 2.682307 -52.275071 -170.702929 -22.680905 -3.215290 -1.872609 1.924661 153.615244 29.768382 -7.227284 -2.654958 -1.527865 1.513068 144.171934 27.550343 -36.204330 -2.018826 -1.151983 1.108058 0.000001 -0.000001 0.000002 -9.108380 -0.517534 2.260134 104.167113 15.265145 -19.582043 -3.700069 0.000314 0.001510 101.640578 12.747384 -15.580112 -2.850083 0.000374 -0.000239 100.140340 10.000580 -11.933902 -2.772147 0.000001 -0.000022 0.000003 -0.000004 -0.000001 -9.532578 0.000277 0.000291 100.843133 15.414236 -18.765670 -3.700076 0.000329 0.004004 101.531793 12.827049 -15.559263 -2.950053 0.000361 -0.001789 102.382254 11.450943 -14.203052 -2.946614 0.000004 -0.000158 0.000002 0.000003 -0.000001 -9.103693 -0.042758 -1.864839 99.977618 17.999517 -21.316115 -3.379331 0.000316 -0.000789 101.899947 11.800888 -14.542212 -2.889764 0.000342 0.000700 105.861607 8.427242 -11.201737 -2.638813 -0.000002 0.000931 -0.000001 -0.000001 0.000001 -8.076763 -0.486398 -3.805999 89.925567 20.884908 -20.703154 -3.600045 0.000278 -0.003492 92.306810 11.046424 -11.115984 -2.100009 0.000297 -0.005458 95.598838 5.897451 -6.259890 -2.115779 -0.000039 -0.003666 0.000003 -0.000001 -0.000005 4.570446 11.014691 -2.160851 -0.000018 0.000010 -0.000021 10.592356 -0.524554 -2.232262 71.108041 16.982381 -12.181089 27.841862 0.000166 -0.000199 112.309122 -57.887021 79.023424 28.328827 -0.000043 0.000020 0.000020 -0.000089 -0.000001 2.465986 -1.576144 2.681910 -39.751093 161.974753 -9.571468 3.217855 -1.871803 1.916389 161.256928 -25.994926 25.849667 2.656097 -1.528659 1.514469 141.451114 -27.112960 51.658708 2.020875 -1.154040 1.115145 0.000003 -0.000000 0.000003 9.109366 -0.517836 2.259746 92.996147 -17.053138 17.941368 3.700063 0.000189 -0.000480 91.045780 -11.906189 12.140899 2.850040 0.000207 0.000199 90.182068 -8.997909 9.025176 2.774883 -0.000028 -0.000022 -0.000000 0.000001 -0.000002 9.533463 0.000235 -0.000085 97.133630 -16.306744 18.429660 3.700053 0.000212 -0.000366 94.866745 -9.961690 10.838041 2.950067 0.000184 -0.000188 95.197797 -10.021079 10.971617 2.952849 -0.000029 0.000067 0.000003 0.000006 0.000000 9.104593 -0.042821 -1.865215 97.368732 -15.964409 18.129788 3.150069 0.000216 -0.000085 98.750841 -11.950930 13.915360 2.950030 0.000206 -0.000077 100.749245 -10.951172 13.209473 2.644331 0.000030 0.000051 0.000001 0.000000 0.000001 8.077842 -0.486719 -3.806382 85.306454 -20.451815 19.433073 3.600023 0.000205 0.014588 85.613730 -16.829091 16.093488 2.100052 0.000202 0.007546 86.884576 -12.400896 12.207928 2.125484 -0.000003 0.007518 0.000001 0.000003 0.000002 -8.207786 -6.751667 -1.599560 -0.077001 -0.000003 0.000080 -0.000002 -44.370110 0.345938 0.153719 -0.000000 -0.000000 0.000000 -44.423679 -3.043532 -0.076700 0.000000 -0.000002 -0.000006 -8.728667 10.710559 -0.000009 -0.000000 -0.000000 -0.000001 -0.000679 9.278123 0.000000 -0.000000 -0.000000 8.207792 -6.751710 -1.599556 -0.074518 -0.000003 0.000081 -0.000002 -44.370014 0.346960 0.148822 0.000002 0.000000 -0.000001 -44.423664 -3.044403 -0.074314 0.000000 -0.000002 -0.000004 -8.728671 10.710558 0.000007 -0.000000 -0.000000 0.000000 -0.000680 9.278137 -0.000000 0.000000 -0.000001 
0.000006 104.270477 1.554256 0.000010 0.000003 -0.000113 -0.000005 10.181587 0.131522 0.000001 -0.000003 0.000084 -0.000000 9.893967 -1.470711 0.000001 0.000000 -0.000000 -0.000000 9.220802 -1.370642 0.000000 -0.000000 -0.000000 0.000001 16.740433 -2.049030 0.000000 -0.000000 -0.000000 0.000000 9.617859 1.685014 0.000000 0.000000 0.000000 0.000002 22.037384 7.501101 0.000000 -0.000000 0.000000 -4.569968 11.014880 -2.160881 0.000008 0.000001 -0.000038 -10.592867 -0.524673 -2.232037 68.952235 7.107751 -4.883979 -27.841520 -0.000003 0.000543 -51.789660 113.222161 72.747109 -28.328821 0.000007 0.000030 -0.000323 -0.000046 0.000007 -2.464557 -1.573613 2.682234 -56.925587 -191.144142 -58.853964 -3.215276 -1.872649 1.924669 148.592336 28.327699 -17.744043 -2.654964 -1.527875 1.513065 140.771141 28.303505 -33.633064 -2.018819 -1.152030 1.108069 -0.000003 -0.000000 0.000002 -9.108368 -0.517542 2.260135 103.813247 13.641491 -17.408434 -3.700068 0.000316 0.001532 101.982729 12.566191 -15.452051 -2.850067 0.000373 -0.000233 100.925846 10.210994 -12.354241 -2.772155 -0.000014 -0.000018 0.000000 0.000000 -0.000000 -9.532585 0.000290 0.000276 100.699432 12.556885 -15.289437 -3.700078 0.000322 0.004002 100.998882 12.462874 -14.975367 -2.950058 0.000322 -0.001784 101.199546 11.224662 -13.635458 -2.946640 0.000000 -0.000155 -0.000002 -0.000000 0.000000 -9.103698 -0.042757 -1.864844 99.739483 13.958855 -16.474596 -3.379333 0.000309 -0.000788 101.025792 10.689548 -12.976982 -2.889760 0.000332 0.000689 104.300192 8.341325 -10.781595 -2.638811 -0.000016 0.000944 0.000002 -0.000000 0.000001 -8.076754 -0.486394 -3.806021 89.041829 16.243665 -15.830758 -3.600032 0.000290 -0.003516 90.823095 8.052475 -7.810390 -2.100014 0.000320 -0.005485 94.108969 4.163110 -4.241997 -2.115783 -0.000027 -0.003680 0.000001 -0.000000 -0.000003 4.570446 11.014691 -2.160851 -0.000018 0.000010 -0.000021 10.592359 -0.524533 -2.232288 71.038892 12.470498 -8.918699 27.841858 0.000133 -0.000190 113.301370 -62.924702 85.832276 28.328833 -0.000029 0.000025 0.000020 -0.000088 -0.000000 2.465975 -1.576155 2.681909 -41.836244 162.642104 -4.693348 3.217858 -1.871790 1.916391 158.552992 -26.524743 24.696130 2.656105 -1.528637 1.514454 143.307027 -26.998594 44.916499 2.020887 -1.154051 1.115145 -0.000000 0.000007 0.000004 9.109392 -0.517832 2.259749 96.027870 -18.640435 20.655925 3.700063 0.000193 -0.000469 92.486956 -13.156711 13.752759 2.850060 0.000209 0.000207 91.938294 -10.693592 11.058053 2.774881 -0.000048 -0.000046 -0.000002 0.000002 -0.000001 9.533466 0.000228 -0.000089 97.653988 -16.510212 18.827456 3.700042 0.000210 -0.000376 95.831550 -10.474427 11.588510 2.950046 0.000210 -0.000184 97.107723 -10.909290 12.346845 2.952846 -0.000012 0.000067 0.000004 -0.000001 -0.000001 9.104603 -0.042806 -1.865193 98.898708 -15.957557 18.608982 3.150034 0.000211 -0.000097 99.048603 -11.865980 13.888877 2.950037 0.000198 -0.000070 101.475929 -11.016573 13.459422 2.644319 0.000031 0.000055 -0.000001 0.000000 0.000003 8.077860 -0.486703 -3.806393 87.441632 -20.043518 19.763866 3.600004 0.000188 0.014578 87.887213 -16.701440 16.612936 2.100045 0.000196 0.007546 89.534286 -12.575235 12.955269 2.125518 -0.000018 0.007511 0.000001 0.000002 -0.000003 -8.207786 -6.751667 -1.599560 -0.077001 -0.000003 0.000080 -0.000002 -44.370110 0.345938 0.153719 -0.000000 -0.000000 0.000000 -44.423679 -3.043532 -0.076700 0.000000 -0.000002 -0.000006 -8.728667 10.710559 -0.000009 -0.000000 -0.000000 -0.000001 -0.000679 9.278123 0.000000 -0.000000 -0.000000 8.207792 -6.751710 -1.599556 -0.074518 -0.000003 0.000081 -0.000002 -44.370014 0.346960 0.148822 0.000002 0.000000 -0.000001 -44.423664 -3.044403 -0.074314 0.000000 -0.000002 -0.000004 -8.728671 10.710558 0.000007 -0.000000 -0.000000 0.000000 -0.000680 9.278137 -0.000000 0.000000 -0.000001 
